<?xml version="1.0" standalone="no"?>
<!DOCTYPE svg PUBLIC "-//W3C//DTD SVG 20010904//EN"
 "http://www.w3.org/TR/2001/REC-SVG-20010904/DTD/svg10.dtd">
<svg version="1.0" xmlns="http://www.w3.org/2000/svg"
 width="260.000000pt" height="260.000000pt" viewBox="0 0 260.000000 260.000000"
 preserveAspectRatio="xMidYMid meet">
<metadata>
Created by potrace 1.14, written by Peter Selinger 2001-2017
</metadata>
<g transform="translate(0.000000,260.000000) scale(0.100000,-0.100000)"
fill="#000000" stroke="none">
<path d="M0 1300 l0 -1300 1300 0 1300 0 0 1300 0 1300 -1300 0 -1300 0 0
-1300z m928 535 c118 -28 187 -78 231 -167 19 -36 31 -77 31 -100 l0 -38 -104
0 -103 0 -7 38 c-14 93 -146 141 -253 93 -51 -24 -78 -68 -68 -118 9 -47 61
-82 191 -127 255 -88 343 -172 344 -325 0 -126 -44 -197 -156 -252 -59 -29
-77 -33 -173 -37 -169 -7 -279 27 -365 114 -47 46 -86 131 -86 184 l0 30 104
0 103 0 7 -42 c10 -59 59 -103 133 -119 120 -25 223 24 223 107 0 79 -37 109
-206 167 -180 63 -251 109 -302 196 -36 61 -38 174 -5 236 72 135 272 204 461
160z m1060 -39 c108 -50 156 -124 156 -241 0 -83 -29 -145 -88 -186 l-45 -32
40 -20 c157 -77 160 -340 4 -443 -80 -53 -147 -64 -412 -64 l-233 0 0 511 0
510 258 -3 257 -3 63 -29z"/>
<path d="M1620 1536 l0 -126 114 0 c101 0 117 2 147 23 68 46 71 153 6 201
-24 18 -46 21 -148 24 l-119 4 0 -126z"/>
<path d="M1620 1121 l0 -141 113 0 c89 0 121 4 155 20 67 30 91 111 56 186
-26 54 -61 67 -201 72 l-123 5 0 -142z"/>
</g>
</svg>
